<svg xmlns="http://www.w3.org/2000/svg" version="1.1" xmlns:xlink="http://www.w3.org/1999/xlink" xmlns:svgjs="http://svgjs.dev/svgjs" width="1500" height="1500" viewBox="0 0 1500 1500"><rect width="1500" height="1500" fill="#ffffff"></rect><g transform="matrix(0.6666666666666666,0,0,0.6666666666666666,249.78425655976667,249.78425655976673)"><svg viewBox="0 0 343 343" data-background-color="#ffffff" preserveAspectRatio="xMidYMid meet" height="1500" width="1500" xmlns="http://www.w3.org/2000/svg" xmlns:xlink="http://www.w3.org/1999/xlink"><g id="tight-bounds" transform="matrix(1,0,0,1,0.0740000000000407,0.07400000000001228)"><svg viewBox="0 0 342.85155851775386 342.85155851775386" height="342.85155851775386" width="342.85155851775386"><g><svg></svg></g><g><svg viewBox="0 0 342.85155851775386 342.85155851775386" height="342.85155851775386" width="342.85155851775386"><g><path d="M0 171.426c0-94.676 76.75-171.426 171.426-171.426 94.676 0 171.426 76.75 171.426 171.426 0 94.676-76.75 171.426-171.426 171.426-94.676 0-171.426-76.75-171.426-171.426zM171.426 339.756c92.966 0 168.331-75.364 168.33-168.33 0-92.966-75.364-168.331-168.33-168.331-92.966 0-168.331 75.364-168.331 168.331 0 92.966 75.364 168.331 168.331 168.33z" data-fill-palette-color="tertiary" fill="#000000" stroke="transparent"></path><ellipse rx="164.56874808852186" ry="164.56874808852186" cx="171.42577925887693" cy="171.42577925887693" fill="#000000" stroke="transparent" stroke-width="0" fill-opacity="1" data-fill-palette-color="tertiary"></ellipse></g><g transform="matrix(1,0,0,1,64.84655864529837,126.49681746095158)"><svg viewBox="0 0 213.1584412271571 89.85792359585069" height="89.85792359585069" width="213.1584412271571"><g><svg viewBox="0 0 213.1584412271571 89.85792359585069" height="89.85792359585069" width="213.1584412271571"><g><svg viewBox="0 0 213.1584412271571 89.85792359585069" height="89.85792359585069" width="213.1584412271571"><g transform="matrix(1,0,0,1,0,55.535801703342344)"><svg viewBox="0 0 213.1584412271571 34.32212189250835" height="34.32212189250835" width="213.1584412271571"><g id="textblocktransform"><svg viewBox="0 0 213.1584412271571 34.32212189250835" height="34.32212189250835" width="213.1584412271571" id="textblock"><g><svg viewBox="0 0 213.1584412271571 34.32212189250835" height="34.32212189250835" width="213.1584412271571"><g transform="matrix(1,0,0,1,0,0)"><svg width="213.1584412271571" viewBox="1.8 -37.5 235.98 38" height="34.32212189250835" data-palette-color="#ffffff"><path d="M2.3-35L31.8-35 32.3-22.45 31.35-22.45Q29.15-29.1 27.45-31.53 25.75-33.95 22.55-33.95L22.55-33.95 21.95-33.95 21.95-1.05 26.2-1.05 26.2 0 7.95 0 7.95-1.05 12.2-1.05 12.2-33.95 11.55-33.95Q8.35-33.95 6.6-31.43 4.85-28.9 2.75-22.45L2.75-22.45 1.8-22.45 2.3-35ZM42-27.25Q39.35-27.25 38.22-28.6 37.1-29.95 37.1-31.95 37.1-33.95 38.32-35.25 39.55-36.55 42.05-36.55 44.55-36.55 45.85-35.38 47.15-34.2 47.15-32.02 47.15-29.85 45.9-28.55 44.65-27.25 42-27.25ZM34.45-22.9L34.45-23.8 46.7-23.8 46.7-0.9 49.5-0.9 49.5 0 34.65 0 34.65-0.9 37.4-0.9 37.4-22.9 34.45-22.9ZM50.5-22.9L50.5-23.8 62.55-23.8 62.55-19.2Q64.2-24.3 69.82-24.3 75.45-24.3 76.65-18.9L76.65-18.9Q78.4-24.3 84-24.3L84-24.3Q91.34-24.3 91.34-15.95L91.34-15.95 91.34-0.9 94.15-0.9 94.15 0 80.3 0 80.3-0.9 82.05-0.9 82.05-17.15Q82.05-20.95 81.4-21.6L81.4-21.6Q81.09-21.9 80.59-21.9L80.59-21.9Q79.15-21.9 78.05-19.95 76.95-18 76.95-15L76.95-15 76.95-0.9 78.75-0.9 78.75 0 65.9 0 65.9-0.9 67.65-0.9 67.65-17.15Q67.65-20.95 67-21.6L67-21.6Q66.7-21.9 66.2-21.9L66.2-21.9Q64.8-21.9 63.67-19.78 62.55-17.65 62.55-14.7L62.55-14.7 62.55-0.9 64.34-0.9 64.34 0 50.5 0 50.5-0.9 53.25-0.9 53.25-22.9 50.5-22.9ZM108.04 0.5Q101.59 0.5 98.37-2.83 95.14-6.15 95.14-12.08 95.14-18 98.77-21.15 102.39-24.3 107.99-24.3L107.99-24.3Q119.34-24.3 118.89-12.9L118.89-12.9 104.79-12.9 104.79-10.95Q104.79-6.05 106.04-3.55 107.29-1.05 110.39-1.05L110.39-1.05Q116.19-1.05 117.99-7.25L117.99-7.25 118.89-7.1Q117.94-3.5 115.47-1.5 112.99 0.5 108.04 0.5L108.04 0.5ZM104.84-16.35L104.84-13.9 109.99-13.9 109.99-16.35Q109.99-20.4 109.52-21.88 109.04-23.35 107.62-23.35 106.19-23.35 105.52-21.78 104.84-20.2 104.84-16.35L104.84-16.35ZM121.24-34.05L121.24-35 136.19-35Q143.14-35 146.62-33.13 150.09-31.25 150.09-26.8L150.09-26.8Q150.09-19.95 141.84-18.6L141.84-18.6 141.84-18.5Q151.84-17.25 151.84-9.8L151.84-9.8Q151.84-4.35 147.74-2.18 143.64 0 135.94 0L135.94 0 121.24 0 121.24-0.95 124.49-0.95 124.49-34.05 121.24-34.05ZM135.39-17.7L134.24-17.7 134.24-0.95 136.59-0.95Q139.34-0.95 140.44-2.85 141.54-4.75 141.54-8.45L141.54-8.45 141.54-11.1Q141.54-14.4 140.19-16.05 138.84-17.7 135.39-17.7L135.39-17.7ZM135.84-34.05L134.24-34.05 134.24-18.65 135.54-18.65Q138.14-18.65 139.17-20.23 140.19-21.8 140.19-25.05L140.19-25.05 140.19-27.4Q140.19-31.1 139.29-32.58 138.39-34.05 135.84-34.05L135.84-34.05ZM182.89-0.9L182.89 0 171.49 0 170.94-3.65Q170.14-1.65 168.56-0.58 166.99 0.5 163.89 0.5L163.89 0.5Q156.14 0.5 156.14-7.85L156.14-7.85 156.14-22.9 153.34-22.9 153.34-23.8 165.44-23.8 165.44-6.65Q165.44-3.65 165.86-2.7 166.29-1.75 167.56-1.75 168.84-1.75 169.84-3.3 170.84-4.85 170.84-7.6L170.84-7.6 170.84-22.9 168.54-22.9 168.54-23.8 180.14-23.8 180.14-0.9 182.89-0.9ZM197.89-23.4L197.89-23.4Q195.69-23.4 194.74-21 193.79-18.6 193.79-13.05L193.79-13.05 193.79-10.45Q193.79-5.5 194.89-3.35 195.99-1.2 198.94-1.2 201.89-1.2 203.64-3.2 205.39-5.2 205.89-7.75L205.89-7.75 206.79-7.65Q205.84-3.35 203.29-1.45L203.29-1.45Q200.69 0.5 196.14 0.5L196.14 0.5Q190.34 0.5 187.24-2.63 184.14-5.75 184.14-11.78 184.14-17.8 187.66-21.05 191.19-24.3 197.49-24.3L197.49-24.3Q201.94-24.3 204.29-22.58 206.64-20.85 206.64-18.25 206.64-15.65 205.51-14.45 204.39-13.25 202.41-13.25 200.44-13.25 199.24-14.3 198.04-15.35 198.04-17.4L198.04-17.4Q198.04-18.3 198.29-19.2L198.29-19.2 199.94-19.2Q200.29-20.2 200.29-21L200.29-21Q200.29-23.4 197.89-23.4ZM237.78 0L223.88 0 223.88-0.9 226.18-0.9 220.53-12.5 219.58-12.25 219.58-0.9 221.88-0.9 221.88 0 207.53 0 207.53-0.9 210.28-0.9 210.28-36.6 207.33-36.6 207.33-37.5 219.58-37.5 219.58-13.25 220.38-13.55 231.63-22.9 226.93-22.9 226.93-23.8 236.78-23.8 236.78-22.9 233.28-22.9 227.33-17.85 235.98-0.9 237.78-0.9 237.78 0Z" opacity="1" transform="matrix(1,0,0,1,0,0)" fill="#ffffff" class="wordmark-text-0" data-fill-palette-color="quaternary" id="text-0"></path></svg></g></svg></g></svg></g></svg></g><g transform="matrix(1,0,0,1,80.28359700037905,0)"><svg viewBox="0 0 52.59124722639903 47.433172455446545" height="47.433172455446545" width="52.59124722639903"><g><svg xmlns="http://www.w3.org/2000/svg" xmlns:xlink="http://www.w3.org/1999/xlink" version="1.1" x="0" y="0" viewBox="5.070561430809172 8.908 90.24843856919082 81.397" enable-background="new 0 0 100 100" xml:space="preserve" height="47.433172455446545" width="52.59124722639903" class="icon-icon-0" data-fill-palette-color="quaternary" id="icon-0"><path d="M54.621 8.908A3.577 3.577 0 0 0 54.621 16.064C73.114 16.064 88.161 31.111 88.161 49.607S73.114 83.149 54.621 83.149C37.65 83.149 23.591 70.473 21.391 54.093L23.895 56.598A3.56 3.56 0 0 0 26.425 57.645 3.58 3.58 0 0 0 28.955 51.537L20.033 42.615A3.58 3.58 0 0 0 14.973 42.615L6.051 51.537A3.58 3.58 0 0 0 11.112 56.598L14.124 53.586C16.131 74.165 33.527 90.305 54.622 90.305 77.061 90.305 95.319 72.047 95.319 49.607 95.318 27.166 77.061 8.908 54.621 8.908" fill="#ffffff" data-fill-palette-color="quaternary"></path><circle cx="69.431" cy="29.083" r="3.4" fill="#ffffff" data-fill-palette-color="quaternary"></circle><circle cx="76.173" cy="48.166" r="3.4" fill="#ffffff" data-fill-palette-color="quaternary"></circle><circle cx="69.431" cy="66.708" r="3.4" fill="#ffffff" data-fill-palette-color="quaternary"></circle><circle cx="54.105" cy="76.822" r="3.4" fill="#ffffff" data-fill-palette-color="quaternary"></circle><path d="M41.141 69.414A3.793 3.793 0 0 1 38.458 62.94L50.314 51.08V27.108A3.79 3.79 0 1 1 57.895 27.108V52.649C57.895 53.655 57.497 54.619 56.786 55.331L43.823 68.303A3.78 3.78 0 0 1 41.141 69.414" fill="#ffffff" data-fill-palette-color="quaternary"></path></svg></g></svg></g><g></g></svg></g></svg></g></svg></g></svg></g><defs></defs></svg><rect width="342.85155851775386" height="342.85155851775386" fill="none" stroke="none" visibility="hidden"></rect></g></svg></g></svg>